<mxfile host="www.draw.io" modified="2019-11-11T07:20:00.738Z" agent="Mozilla/5.0 (Macintosh; Intel Mac OS X 10_14_6) AppleWebKit/537.36 (KHTML, like Gecko) Chrome/78.0.3904.97 Safari/537.36" etag="fIpbk8Zkz5Mem0ZKFCfF" version="12.2.3" type="github" pages="1">
  <diagram id="-GZT7Gz3S9nu6BwqAsMg" name="Page-1">
    <mxGraphModel dx="1426" dy="826" grid="1" gridSize="10" guides="1" tooltips="1" connect="1" arrows="1" fold="1" page="1" pageScale="1" pageWidth="1654" pageHeight="1169" math="0" shadow="0">
      <root>
        <mxCell id="0"/>
        <mxCell id="1" value="Baseline" parent="0"/>
        <mxCell id="lozlibnP6VbxaUcMPLXo-64" value="Group Platform" style="rounded=0;whiteSpace=wrap;html=1;strokeColor=#004C99;strokeWidth=1;fillColor=#FFFFFF;fontFamily=Garamond;fontColor=#000000;verticalAlign=bottom;dashed=1;fontStyle=1" parent="1" vertex="1">
          <mxGeometry x="750" y="280" width="190" height="520" as="geometry"/>
        </mxCell>
        <mxCell id="lozlibnP6VbxaUcMPLXo-31" value="Hybrid Platforms" style="rounded=0;whiteSpace=wrap;html=1;strokeColor=#004C99;strokeWidth=1;fillColor=#FFFFFF;fontFamily=Garamond;fontColor=#000000;verticalAlign=bottom;dashed=1;fontStyle=1" parent="1" vertex="1">
          <mxGeometry x="480" y="280" width="190" height="520" as="geometry"/>
        </mxCell>
        <mxCell id="lozlibnP6VbxaUcMPLXo-13" value="&lt;b&gt;Translation&lt;/b&gt;&lt;br&gt;QORDOBA" style="whiteSpace=wrap;html=1;aspect=fixed;strokeColor=#000000;fontFamily=Garamond;" parent="1" vertex="1">
          <mxGeometry x="130" y="80" width="100" height="100" as="geometry"/>
        </mxCell>
        <mxCell id="lozlibnP6VbxaUcMPLXo-14" value="&lt;b&gt;Search&lt;/b&gt;&lt;br&gt;Algolia" style="whiteSpace=wrap;html=1;aspect=fixed;strokeColor=#000000;fontFamily=Garamond;" parent="1" vertex="1">
          <mxGeometry x="250" y="80" width="100" height="100" as="geometry"/>
        </mxCell>
        <mxCell id="lozlibnP6VbxaUcMPLXo-45" value="&lt;b&gt;eCommerce Analytics&lt;/b&gt;&lt;br&gt;Google Analytics" style="whiteSpace=wrap;html=1;aspect=fixed;strokeColor=#000000;fontFamily=Garamond;" parent="1" vertex="1">
          <mxGeometry x="10" y="80" width="100" height="100" as="geometry"/>
        </mxCell>
        <mxCell id="lozlibnP6VbxaUcMPLXo-46" value="Analytics" style="endArrow=none;html=1;fontFamily=Garamond;entryX=0.5;entryY=1;entryDx=0;entryDy=0;strokeColor=#000000;fontColor=#000000;exitX=0;exitY=0.25;exitDx=0;exitDy=0;" parent="1" source="lozlibnP6VbxaUcMPLXo-30" target="lozlibnP6VbxaUcMPLXo-45" edge="1">
          <mxGeometry x="0.495" width="50" height="50" relative="1" as="geometry">
            <mxPoint x="220" y="289" as="sourcePoint"/>
            <mxPoint x="220" y="190" as="targetPoint"/>
            <Array as="points">
              <mxPoint x="60" y="310"/>
            </Array>
            <mxPoint as="offset"/>
          </mxGeometry>
        </mxCell>
        <mxCell id="lozlibnP6VbxaUcMPLXo-22" value="Content Translation" style="endArrow=none;html=1;fontFamily=Garamond;entryX=0.5;entryY=1;entryDx=0;entryDy=0;strokeColor=#000000;fontColor=#000000;exitX=0.121;exitY=-0.019;exitDx=0;exitDy=0;exitPerimeter=0;" parent="1" source="lozlibnP6VbxaUcMPLXo-30" target="lozlibnP6VbxaUcMPLXo-13" edge="1">
          <mxGeometry width="50" height="50" relative="1" as="geometry">
            <mxPoint x="210" y="270" as="sourcePoint"/>
            <mxPoint x="210" y="250" as="targetPoint"/>
          </mxGeometry>
        </mxCell>
        <mxCell id="lozlibnP6VbxaUcMPLXo-27" value="Product Search" style="endArrow=none;html=1;fontFamily=Garamond;entryX=0.5;entryY=1;entryDx=0;entryDy=0;strokeColor=#004C99;fontColor=#000000;" parent="1" target="lozlibnP6VbxaUcMPLXo-14" edge="1">
          <mxGeometry width="50" height="50" relative="1" as="geometry">
            <mxPoint x="300" y="268" as="sourcePoint"/>
            <mxPoint x="360" y="190" as="targetPoint"/>
          </mxGeometry>
        </mxCell>
        <mxCell id="lozlibnP6VbxaUcMPLXo-30" value="eCommerce Platforms" style="rounded=0;whiteSpace=wrap;html=1;strokeColor=#004C99;strokeWidth=1;fillColor=#FFFFFF;fontFamily=Garamond;fontColor=#000000;verticalAlign=top;dashed=1;fontStyle=1" parent="1" vertex="1">
          <mxGeometry x="150" y="270" width="240" height="160" as="geometry"/>
        </mxCell>
        <mxCell id="lozlibnP6VbxaUcMPLXo-12" value="&lt;b&gt;Point of Sale&lt;br&gt;&lt;/b&gt;ORACLE XSTORE" style="whiteSpace=wrap;html=1;aspect=fixed;strokeColor=#000000;fontFamily=Garamond;" parent="1" vertex="1">
          <mxGeometry x="790" y="510" width="100" height="100" as="geometry"/>
        </mxCell>
        <mxCell id="lozlibnP6VbxaUcMPLXo-17" value="&lt;b&gt;Payment Gateway&lt;br&gt;&lt;/b&gt;Mashreq&amp;nbsp;" style="whiteSpace=wrap;html=1;aspect=fixed;strokeColor=#000000;fontFamily=Garamond;" parent="1" vertex="1">
          <mxGeometry x="960" y="80" width="100" height="100" as="geometry"/>
        </mxCell>
        <mxCell id="lozlibnP6VbxaUcMPLXo-52" value="In-Store Card Payments" style="endArrow=none;html=1;fontFamily=Garamond;entryX=1;entryY=0.5;entryDx=0;entryDy=0;strokeColor=#000000;fontColor=#000000;exitX=0.5;exitY=1;exitDx=0;exitDy=0;" parent="1" source="lozlibnP6VbxaUcMPLXo-17" target="lozlibnP6VbxaUcMPLXo-12" edge="1">
          <mxGeometry x="-0.56" width="50" height="50" relative="1" as="geometry">
            <mxPoint x="1030" y="230" as="sourcePoint"/>
            <mxPoint x="940" y="605" as="targetPoint"/>
            <Array as="points">
              <mxPoint x="1010" y="560"/>
            </Array>
            <mxPoint as="offset"/>
          </mxGeometry>
        </mxCell>
        <mxCell id="lozlibnP6VbxaUcMPLXo-10" value="&lt;b&gt;CORE ERP&lt;br&gt;&lt;/b&gt;ORACLE" style="whiteSpace=wrap;html=1;aspect=fixed;fontFamily=Garamond;" parent="1" vertex="1">
          <mxGeometry x="790" y="300" width="100" height="100" as="geometry"/>
        </mxCell>
        <mxCell id="lozlibnP6VbxaUcMPLXo-63" value="in-Store &lt;br&gt;Sales" style="endArrow=none;html=1;fontFamily=Garamond;entryX=1;entryY=0.25;entryDx=0;entryDy=0;strokeColor=#000000;fontColor=#000000;exitX=1.01;exitY=0.83;exitDx=0;exitDy=0;exitPerimeter=0;" parent="1" source="lozlibnP6VbxaUcMPLXo-10" target="lozlibnP6VbxaUcMPLXo-12" edge="1">
          <mxGeometry x="0.0043" width="50" height="50" relative="1" as="geometry">
            <mxPoint x="1020" y="190" as="sourcePoint"/>
            <mxPoint x="900" y="570" as="targetPoint"/>
            <Array as="points">
              <mxPoint x="920" y="383"/>
              <mxPoint x="920" y="535"/>
            </Array>
            <mxPoint as="offset"/>
          </mxGeometry>
        </mxCell>
        <mxCell id="o8V65QhEUuh6gnyvcspd-1" value="&lt;b&gt;Store WIFI&lt;/b&gt;&lt;br&gt;Purple" style="whiteSpace=wrap;html=1;aspect=fixed;strokeColor=#000000;fontFamily=Garamond;" vertex="1" parent="1">
          <mxGeometry x="10" y="450" width="100" height="100" as="geometry"/>
        </mxCell>
        <mxCell id="lozlibnP6VbxaUcMPLXo-3" value="Sunset" parent="0" visible="0"/>
        <mxCell id="lozlibnP6VbxaUcMPLXo-2" value="&lt;b&gt;eCommerce&lt;/b&gt;&lt;br&gt;MAGENTO 1" style="whiteSpace=wrap;html=1;aspect=fixed;strokeColor=#FF0000;fontFamily=Garamond;strokeWidth=2;" parent="lozlibnP6VbxaUcMPLXo-3" vertex="1">
          <mxGeometry x="160" y="300" width="100" height="100" as="geometry"/>
        </mxCell>
        <mxCell id="lozlibnP6VbxaUcMPLXo-56" value="Product &lt;br&gt;Information" style="endArrow=none;html=1;fontFamily=Garamond;entryX=0;entryY=0.75;entryDx=0;entryDy=0;strokeColor=#FF3333;fontColor=#FF3333;" parent="lozlibnP6VbxaUcMPLXo-3" target="lozlibnP6VbxaUcMPLXo-2" edge="1">
          <mxGeometry x="-0.0024" y="1" width="50" height="50" relative="1" as="geometry">
            <mxPoint x="70" y="375" as="sourcePoint"/>
            <mxPoint x="70.03999999999996" y="561" as="targetPoint"/>
            <mxPoint as="offset"/>
          </mxGeometry>
        </mxCell>
        <mxCell id="lozlibnP6VbxaUcMPLXo-57" value="XLS" style="shape=umlActor;verticalLabelPosition=bottom;labelBackgroundColor=#ffffff;verticalAlign=top;html=1;outlineConnect=0;dashed=1;strokeColor=#FF3333;strokeWidth=2;fillColor=#FFFFFF;fontFamily=Garamond;fontColor=#FF3333;" parent="lozlibnP6VbxaUcMPLXo-3" vertex="1">
          <mxGeometry x="40" y="340" width="30" height="60" as="geometry"/>
        </mxCell>
        <mxCell id="lozlibnP6VbxaUcMPLXo-60" value="&lt;b&gt;Payment Gateway&lt;/b&gt;&lt;br&gt;Payfort" style="whiteSpace=wrap;html=1;aspect=fixed;strokeColor=#FF0000;fontFamily=Garamond;strokeWidth=2;" parent="lozlibnP6VbxaUcMPLXo-3" vertex="1">
          <mxGeometry x="390" y="80" width="100" height="100" as="geometry"/>
        </mxCell>
        <mxCell id="lozlibnP6VbxaUcMPLXo-61" value="All Payment Operations" style="endArrow=none;html=1;fontFamily=Garamond;entryX=1;entryY=0.25;entryDx=0;entryDy=0;strokeColor=#FF3333;fontColor=#FF3333;exitX=0.5;exitY=1;exitDx=0;exitDy=0;" parent="lozlibnP6VbxaUcMPLXo-3" source="lozlibnP6VbxaUcMPLXo-60" target="lozlibnP6VbxaUcMPLXo-2" edge="1">
          <mxGeometry x="0.5077" width="50" height="50" relative="1" as="geometry">
            <mxPoint x="850" y="410" as="sourcePoint"/>
            <mxPoint x="245" y="410" as="targetPoint"/>
            <Array as="points">
              <mxPoint x="440" y="325"/>
            </Array>
            <mxPoint as="offset"/>
          </mxGeometry>
        </mxCell>
        <mxCell id="lozlibnP6VbxaUcMPLXo-53" value="Sales &amp;amp; Returns Posting" style="endArrow=none;html=1;fontFamily=Garamond;entryX=0.5;entryY=1;entryDx=0;entryDy=0;strokeColor=#FF3333;fontColor=#FF3333;exitX=0.75;exitY=1;exitDx=0;exitDy=0;" parent="lozlibnP6VbxaUcMPLXo-3" source="lozlibnP6VbxaUcMPLXo-10" target="lozlibnP6VbxaUcMPLXo-2" edge="1">
          <mxGeometry x="0.6319" width="50" height="50" relative="1" as="geometry">
            <mxPoint x="290" y="620" as="sourcePoint"/>
            <mxPoint x="230" y="490" as="targetPoint"/>
            <Array as="points">
              <mxPoint x="865" y="490"/>
              <mxPoint x="210" y="490"/>
            </Array>
            <mxPoint as="offset"/>
          </mxGeometry>
        </mxCell>
        <mxCell id="lozlibnP6VbxaUcMPLXo-55" value="Stock on Hand" style="endArrow=none;html=1;fontFamily=Garamond;entryX=0.75;entryY=1;entryDx=0;entryDy=0;strokeColor=#FF3333;fontColor=#FF3333;exitX=0.5;exitY=1;exitDx=0;exitDy=0;" parent="lozlibnP6VbxaUcMPLXo-3" source="lozlibnP6VbxaUcMPLXo-10" target="lozlibnP6VbxaUcMPLXo-2" edge="1">
          <mxGeometry x="0.6828" width="50" height="50" relative="1" as="geometry">
            <mxPoint x="791" y="350" as="sourcePoint"/>
            <mxPoint x="390.03999999999996" y="351" as="targetPoint"/>
            <Array as="points">
              <mxPoint x="840" y="470"/>
              <mxPoint x="235" y="470"/>
            </Array>
            <mxPoint as="offset"/>
          </mxGeometry>
        </mxCell>
        <mxCell id="lozlibnP6VbxaUcMPLXo-4" value="In Progress" parent="0"/>
        <mxCell id="lozlibnP6VbxaUcMPLXo-1" value="&lt;b&gt;eCommerce&lt;/b&gt;&lt;br&gt;MAGENTO 2" style="whiteSpace=wrap;html=1;aspect=fixed;strokeColor=#004C99;fontFamily=Garamond;strokeWidth=2;" parent="lozlibnP6VbxaUcMPLXo-4" vertex="1">
          <mxGeometry x="280" y="300" width="100" height="100" as="geometry"/>
        </mxCell>
        <mxCell id="lozlibnP6VbxaUcMPLXo-9" value="&lt;b&gt;Product Info Management&lt;/b&gt;&lt;br&gt;Brandquad" style="whiteSpace=wrap;html=1;aspect=fixed;strokeColor=#004C99;fontFamily=Garamond;strokeWidth=2;" parent="lozlibnP6VbxaUcMPLXo-4" vertex="1">
          <mxGeometry x="530" y="540" width="100" height="100" as="geometry"/>
        </mxCell>
        <mxCell id="lozlibnP6VbxaUcMPLXo-15" value="&lt;b&gt;Gift Card &amp;amp; Wallet Mgmt&lt;br&gt;&lt;/b&gt;Quikcilver" style="whiteSpace=wrap;html=1;aspect=fixed;strokeColor=#004C99;fontFamily=Garamond;strokeWidth=2;" parent="lozlibnP6VbxaUcMPLXo-4" vertex="1">
          <mxGeometry x="530" y="660" width="100" height="100" as="geometry"/>
        </mxCell>
        <mxCell id="lozlibnP6VbxaUcMPLXo-16" value="&lt;b&gt;Payment Gateway&lt;br&gt;&lt;/b&gt;Checkout&amp;nbsp;" style="whiteSpace=wrap;html=1;aspect=fixed;strokeColor=#004C99;fontFamily=Garamond;strokeWidth=2;" parent="lozlibnP6VbxaUcMPLXo-4" vertex="1">
          <mxGeometry x="530" y="80" width="100" height="100" as="geometry"/>
        </mxCell>
        <mxCell id="lozlibnP6VbxaUcMPLXo-18" value="&lt;b&gt;Order Management&lt;/b&gt;&lt;br&gt;Retail Unity" style="whiteSpace=wrap;html=1;aspect=fixed;strokeColor=#004C99;fontFamily=Garamond;strokeWidth=2;" parent="lozlibnP6VbxaUcMPLXo-4" vertex="1">
          <mxGeometry x="530" y="300" width="100" height="100" as="geometry"/>
        </mxCell>
        <mxCell id="lozlibnP6VbxaUcMPLXo-20" value="&lt;b&gt;Carrier Management&lt;br&gt;&lt;/b&gt;CARRIYO&amp;nbsp;" style="whiteSpace=wrap;html=1;aspect=fixed;strokeColor=#004C99;fontFamily=Garamond;strokeWidth=2;" parent="lozlibnP6VbxaUcMPLXo-4" vertex="1">
          <mxGeometry x="680" y="80" width="100" height="100" as="geometry"/>
        </mxCell>
        <mxCell id="lozlibnP6VbxaUcMPLXo-21" value="&lt;b&gt;CRM , CS &amp;amp; Marketing Automation&lt;br&gt;&lt;/b&gt;Salesforce Cloud" style="whiteSpace=wrap;html=1;aspect=fixed;strokeColor=#004C99;fontFamily=Garamond;strokeWidth=2;" parent="lozlibnP6VbxaUcMPLXo-4" vertex="1">
          <mxGeometry x="530" y="420" width="100" height="100" as="geometry"/>
        </mxCell>
        <mxCell id="lozlibnP6VbxaUcMPLXo-32" value="Order Creation" style="endArrow=none;html=1;fontFamily=Garamond;entryX=0;entryY=0.5;entryDx=0;entryDy=0;strokeColor=#004C99;fontColor=#004C99;exitX=1;exitY=0.5;exitDx=0;exitDy=0;" parent="lozlibnP6VbxaUcMPLXo-4" source="lozlibnP6VbxaUcMPLXo-1" target="lozlibnP6VbxaUcMPLXo-18" edge="1">
          <mxGeometry width="50" height="50" relative="1" as="geometry">
            <mxPoint x="340" y="290" as="sourcePoint"/>
            <mxPoint x="340" y="190" as="targetPoint"/>
          </mxGeometry>
        </mxCell>
        <mxCell id="lozlibnP6VbxaUcMPLXo-37" value="Customer &lt;br&gt;Record &amp;amp; Sales" style="endArrow=none;html=1;fontFamily=Garamond;entryX=0.75;entryY=1;entryDx=0;entryDy=0;strokeColor=#004C99;fontColor=#004C99;exitX=0;exitY=0.5;exitDx=0;exitDy=0;rounded=1;" parent="lozlibnP6VbxaUcMPLXo-4" source="lozlibnP6VbxaUcMPLXo-21" target="lozlibnP6VbxaUcMPLXo-1" edge="1">
          <mxGeometry width="50" height="50" relative="1" as="geometry">
            <mxPoint x="335" y="715" as="sourcePoint"/>
            <mxPoint x="150" y="530" as="targetPoint"/>
            <Array as="points">
              <mxPoint x="355" y="470"/>
            </Array>
          </mxGeometry>
        </mxCell>
        <mxCell id="lozlibnP6VbxaUcMPLXo-39" value="Product &lt;br&gt;Information" style="endArrow=none;html=1;fontFamily=Garamond;entryX=0.5;entryY=1;entryDx=0;entryDy=0;strokeColor=#004C99;fontColor=#004C99;exitX=0;exitY=0.5;exitDx=0;exitDy=0;" parent="lozlibnP6VbxaUcMPLXo-4" source="lozlibnP6VbxaUcMPLXo-9" target="lozlibnP6VbxaUcMPLXo-1" edge="1">
          <mxGeometry x="-0.3973" width="50" height="50" relative="1" as="geometry">
            <mxPoint x="440" y="585" as="sourcePoint"/>
            <mxPoint x="290" y="490" as="targetPoint"/>
            <Array as="points">
              <mxPoint x="330" y="590"/>
            </Array>
            <mxPoint as="offset"/>
          </mxGeometry>
        </mxCell>
        <mxCell id="lozlibnP6VbxaUcMPLXo-43" value="Gift Card &lt;br&gt;Creation, Redemption, Top-Up&amp;nbsp;" style="endArrow=none;html=1;fontFamily=Garamond;entryX=0.25;entryY=1;entryDx=0;entryDy=0;strokeColor=#004C99;fontColor=#004C99;exitX=0;exitY=0.5;exitDx=0;exitDy=0;" parent="lozlibnP6VbxaUcMPLXo-4" source="lozlibnP6VbxaUcMPLXo-15" target="lozlibnP6VbxaUcMPLXo-1" edge="1">
          <mxGeometry x="-0.514" width="50" height="50" relative="1" as="geometry">
            <mxPoint x="540" y="600" as="sourcePoint"/>
            <mxPoint x="365" y="410" as="targetPoint"/>
            <Array as="points">
              <mxPoint x="305" y="710"/>
            </Array>
            <mxPoint as="offset"/>
          </mxGeometry>
        </mxCell>
        <mxCell id="lozlibnP6VbxaUcMPLXo-48" value="Available Stock" style="endArrow=none;html=1;fontFamily=Garamond;entryX=1;entryY=0.25;entryDx=0;entryDy=0;strokeColor=#004C99;fontColor=#004C99;exitX=0;exitY=0.25;exitDx=0;exitDy=0;" parent="lozlibnP6VbxaUcMPLXo-4" source="lozlibnP6VbxaUcMPLXo-18" target="lozlibnP6VbxaUcMPLXo-1" edge="1">
          <mxGeometry width="50" height="50" relative="1" as="geometry">
            <mxPoint x="540" y="323" as="sourcePoint"/>
            <mxPoint x="380" y="320" as="targetPoint"/>
          </mxGeometry>
        </mxCell>
        <mxCell id="lozlibnP6VbxaUcMPLXo-51" value="Order Information" style="endArrow=none;html=1;fontFamily=Garamond;entryX=0;entryY=0.5;entryDx=0;entryDy=0;strokeColor=#004C99;fontColor=#004C99;exitX=1;exitY=0.5;exitDx=0;exitDy=0;" parent="lozlibnP6VbxaUcMPLXo-4" edge="1">
          <mxGeometry width="50" height="50" relative="1" as="geometry">
            <mxPoint x="380" y="380" as="sourcePoint"/>
            <mxPoint x="530" y="380" as="targetPoint"/>
          </mxGeometry>
        </mxCell>
        <mxCell id="lozlibnP6VbxaUcMPLXo-35" value="Sales &amp;amp; Returns Posting" style="endArrow=none;html=1;fontFamily=Garamond;entryX=1;entryY=0.09;entryDx=0;entryDy=0;strokeColor=#004C99;fontColor=#004C99;exitX=0;exitY=0.13;exitDx=0;exitDy=0;entryPerimeter=0;exitPerimeter=0;" parent="lozlibnP6VbxaUcMPLXo-4" source="lozlibnP6VbxaUcMPLXo-10" target="lozlibnP6VbxaUcMPLXo-18" edge="1">
          <mxGeometry width="50" height="50" relative="1" as="geometry">
            <mxPoint x="425" y="580" as="sourcePoint"/>
            <mxPoint x="390" y="460" as="targetPoint"/>
          </mxGeometry>
        </mxCell>
        <mxCell id="lozlibnP6VbxaUcMPLXo-36" value="In-Store &lt;br&gt;Payments" style="endArrow=none;html=1;fontFamily=Garamond;entryX=0.99;entryY=0.92;entryDx=0;entryDy=0;strokeColor=#004C99;fontColor=#004C99;exitX=0.25;exitY=0;exitDx=0;exitDy=0;entryPerimeter=0;" parent="lozlibnP6VbxaUcMPLXo-4" source="lozlibnP6VbxaUcMPLXo-12" target="lozlibnP6VbxaUcMPLXo-18" edge="1">
          <mxGeometry x="0.4145" width="50" height="50" relative="1" as="geometry">
            <mxPoint x="800" y="360" as="sourcePoint"/>
            <mxPoint x="640" y="360" as="targetPoint"/>
            <Array as="points">
              <mxPoint x="815" y="490"/>
              <mxPoint x="700" y="490"/>
              <mxPoint x="700" y="392"/>
            </Array>
            <mxPoint as="offset"/>
          </mxGeometry>
        </mxCell>
        <mxCell id="lozlibnP6VbxaUcMPLXo-40" value="Product &lt;br&gt;Information" style="endArrow=none;html=1;fontFamily=Garamond;entryX=1;entryY=0.75;entryDx=0;entryDy=0;strokeColor=#004C99;fontColor=#004C99;exitX=1;exitY=0.75;exitDx=0;exitDy=0;" parent="lozlibnP6VbxaUcMPLXo-4" source="lozlibnP6VbxaUcMPLXo-10" target="lozlibnP6VbxaUcMPLXo-9" edge="1">
          <mxGeometry x="-0.3954" width="50" height="50" relative="1" as="geometry">
            <mxPoint x="540" y="600" as="sourcePoint"/>
            <mxPoint x="365" y="410" as="targetPoint"/>
            <Array as="points">
              <mxPoint x="960" y="375"/>
              <mxPoint x="960" y="615"/>
            </Array>
            <mxPoint as="offset"/>
          </mxGeometry>
        </mxCell>
        <mxCell id="lozlibnP6VbxaUcMPLXo-41" value="Order &lt;br&gt;Information" style="endArrow=none;html=1;fontFamily=Garamond;entryX=1;entryY=0.75;entryDx=0;entryDy=0;strokeColor=#004C99;fontColor=#004C99;exitX=0.5;exitY=0;exitDx=0;exitDy=0;" parent="lozlibnP6VbxaUcMPLXo-4" source="lozlibnP6VbxaUcMPLXo-12" target="lozlibnP6VbxaUcMPLXo-18" edge="1">
          <mxGeometry x="-0.0145" width="50" height="50" relative="1" as="geometry">
            <mxPoint x="855" y="545" as="sourcePoint"/>
            <mxPoint x="670" y="360" as="targetPoint"/>
            <Array as="points">
              <mxPoint x="840" y="470"/>
              <mxPoint x="730" y="470"/>
              <mxPoint x="730" y="375"/>
            </Array>
            <mxPoint as="offset"/>
          </mxGeometry>
        </mxCell>
        <mxCell id="lozlibnP6VbxaUcMPLXo-42" value="Order &lt;br&gt;Collection &lt;br&gt;In Store" style="endArrow=none;html=1;fontFamily=Garamond;entryX=0.99;entryY=0.57;entryDx=0;entryDy=0;strokeColor=#004C99;fontColor=#004C99;exitX=0.75;exitY=0;exitDx=0;exitDy=0;entryPerimeter=0;" parent="lozlibnP6VbxaUcMPLXo-4" source="lozlibnP6VbxaUcMPLXo-12" target="lozlibnP6VbxaUcMPLXo-18" edge="1">
          <mxGeometry x="0.1054" width="50" height="50" relative="1" as="geometry">
            <mxPoint x="850" y="570" as="sourcePoint"/>
            <mxPoint x="640" y="360" as="targetPoint"/>
            <Array as="points">
              <mxPoint x="865" y="450"/>
              <mxPoint x="760" y="450"/>
              <mxPoint x="760" y="357"/>
            </Array>
            <mxPoint as="offset"/>
          </mxGeometry>
        </mxCell>
        <mxCell id="lozlibnP6VbxaUcMPLXo-47" value="Stock on Hand" style="endArrow=none;html=1;fontFamily=Garamond;entryX=1;entryY=0.32;entryDx=0;entryDy=0;strokeColor=#004C99;fontColor=#004C99;exitX=0;exitY=0.35;exitDx=0;exitDy=0;entryPerimeter=0;exitPerimeter=0;" parent="lozlibnP6VbxaUcMPLXo-4" source="lozlibnP6VbxaUcMPLXo-10" target="lozlibnP6VbxaUcMPLXo-18" edge="1">
          <mxGeometry width="50" height="50" relative="1" as="geometry">
            <mxPoint x="800" y="323" as="sourcePoint"/>
            <mxPoint x="640" y="319" as="targetPoint"/>
          </mxGeometry>
        </mxCell>
        <mxCell id="lozlibnP6VbxaUcMPLXo-44" value="Shipment &lt;br&gt;Request and Updates" style="endArrow=none;html=1;fontFamily=Garamond;entryX=0.75;entryY=0;entryDx=0;entryDy=0;strokeColor=#004C99;fontColor=#004C99;exitX=0.5;exitY=1;exitDx=0;exitDy=0;" parent="lozlibnP6VbxaUcMPLXo-4" source="lozlibnP6VbxaUcMPLXo-20" target="lozlibnP6VbxaUcMPLXo-18" edge="1">
          <mxGeometry x="-0.5918" width="50" height="50" relative="1" as="geometry">
            <mxPoint x="800" y="323" as="sourcePoint"/>
            <mxPoint x="640" y="319" as="targetPoint"/>
            <Array as="points">
              <mxPoint x="730" y="260"/>
              <mxPoint x="605" y="260"/>
            </Array>
            <mxPoint as="offset"/>
          </mxGeometry>
        </mxCell>
        <mxCell id="lozlibnP6VbxaUcMPLXo-33" value="Payment Confirmation, &lt;br&gt;Refund, Cancelation" style="endArrow=none;html=1;fontFamily=Garamond;strokeColor=#004C99;fontColor=#004C99;entryX=0.5;entryY=1;entryDx=0;entryDy=0;exitX=0.5;exitY=0;exitDx=0;exitDy=0;" parent="lozlibnP6VbxaUcMPLXo-4" source="lozlibnP6VbxaUcMPLXo-18" target="lozlibnP6VbxaUcMPLXo-16" edge="1">
          <mxGeometry x="0.1667" width="50" height="50" relative="1" as="geometry">
            <mxPoint x="390" y="360" as="sourcePoint"/>
            <mxPoint x="615" y="180" as="targetPoint"/>
            <mxPoint as="offset"/>
          </mxGeometry>
        </mxCell>
        <mxCell id="lozlibnP6VbxaUcMPLXo-50" value="Payment &lt;br&gt;Authorization" style="endArrow=none;html=1;fontFamily=Garamond;entryX=0;entryY=0.75;entryDx=0;entryDy=0;strokeColor=#004C99;fontColor=#004C99;exitX=0.75;exitY=0;exitDx=0;exitDy=0;" parent="lozlibnP6VbxaUcMPLXo-4" source="lozlibnP6VbxaUcMPLXo-1" target="lozlibnP6VbxaUcMPLXo-16" edge="1">
          <mxGeometry width="50" height="50" relative="1" as="geometry">
            <mxPoint x="565" y="310" as="sourcePoint"/>
            <mxPoint x="500" y="190" as="targetPoint"/>
            <Array as="points">
              <mxPoint x="355" y="260"/>
              <mxPoint x="520" y="260"/>
              <mxPoint x="520" y="155"/>
            </Array>
            <mxPoint as="offset"/>
          </mxGeometry>
        </mxCell>
        <mxCell id="lozlibnP6VbxaUcMPLXo-49" value="Gift Card &lt;br&gt;Creation, Redemption, Top-Up&amp;nbsp;" style="endArrow=none;html=1;fontFamily=Garamond;entryX=1;entryY=0.75;entryDx=0;entryDy=0;strokeColor=#004C99;fontColor=#004C99;exitX=0.5;exitY=1;exitDx=0;exitDy=0;" parent="lozlibnP6VbxaUcMPLXo-4" source="lozlibnP6VbxaUcMPLXo-12" target="lozlibnP6VbxaUcMPLXo-15" edge="1">
          <mxGeometry x="0.2239" y="-5" width="50" height="50" relative="1" as="geometry">
            <mxPoint x="540" y="720" as="sourcePoint"/>
            <mxPoint x="315" y="410" as="targetPoint"/>
            <Array as="points">
              <mxPoint x="840" y="735"/>
            </Array>
            <mxPoint as="offset"/>
          </mxGeometry>
        </mxCell>
        <mxCell id="lozlibnP6VbxaUcMPLXo-62" value="Customer &lt;br&gt;Records &amp;amp; Sales" style="endArrow=none;html=1;fontFamily=Garamond;entryX=1;entryY=0.25;entryDx=0;entryDy=0;strokeColor=#004C99;fontColor=#004C99;exitX=0;exitY=0.25;exitDx=0;exitDy=0;" parent="lozlibnP6VbxaUcMPLXo-4" source="lozlibnP6VbxaUcMPLXo-12" target="lozlibnP6VbxaUcMPLXo-21" edge="1">
          <mxGeometry x="-0.52" y="-5" width="50" height="50" relative="1" as="geometry">
            <mxPoint x="920" y="470" as="sourcePoint"/>
            <mxPoint x="640" y="575" as="targetPoint"/>
            <Array as="points">
              <mxPoint x="680" y="535"/>
              <mxPoint x="680" y="445"/>
            </Array>
            <mxPoint as="offset"/>
          </mxGeometry>
        </mxCell>
        <mxCell id="o8V65QhEUuh6gnyvcspd-2" value="Customer Leads" style="endArrow=none;html=1;fontFamily=Garamond;entryX=0;entryY=0.75;entryDx=0;entryDy=0;strokeColor=#004C99;fontColor=#004C99;" edge="1" parent="lozlibnP6VbxaUcMPLXo-4" target="lozlibnP6VbxaUcMPLXo-21">
          <mxGeometry x="-0.6262" width="50" height="50" relative="1" as="geometry">
            <mxPoint x="110" y="495" as="sourcePoint"/>
            <mxPoint x="340" y="409.9999999999998" as="targetPoint"/>
            <Array as="points"/>
            <mxPoint as="offset"/>
          </mxGeometry>
        </mxCell>
      </root>
    </mxGraphModel>
  </diagram>
</mxfile>
